<svg width="447" height="388" viewBox="0 0 447 388" fill="none" xmlns="http://www.w3.org/2000/svg">
<g filter="url(#filter0_d_72_62)">
<path d="M20.1398 178V44.6138H28.281V170.445H93.411V178H20.1398ZM145.179 180.149C139.404 180.149 134.107 178.999 129.287 176.697C124.511 174.396 120.668 171.031 117.759 166.602C114.893 162.173 113.461 156.789 113.461 150.45C113.461 146.282 114.199 142.613 115.675 139.443C117.151 136.273 119.431 133.538 122.514 131.237C125.596 128.935 129.548 127.047 134.367 125.57C139.187 124.051 144.94 122.878 151.627 122.053C156.707 121.445 161.244 120.859 165.239 120.295C169.234 119.687 172.36 118.753 174.618 117.494C176.919 116.235 178.07 114.325 178.07 111.763V107.595C178.07 100.3 175.768 94.5034 171.166 90.2048C166.563 85.9062 160.224 83.757 152.148 83.757C144.984 83.757 138.948 85.3418 134.042 88.5114C129.179 91.6377 125.77 95.6757 123.816 100.626L116.326 97.825C118.237 93.0488 120.994 89.0759 124.598 85.9062C128.245 82.7366 132.413 80.3702 137.103 78.8071C141.836 77.244 146.785 76.4624 151.952 76.4624C156.425 76.4624 160.68 77.092 164.718 78.3512C168.799 79.6103 172.425 81.5208 175.595 84.0826C178.808 86.6444 181.348 89.9226 183.215 93.9172C185.082 97.8684 186.015 102.601 186.015 108.116V178H178.07V159.959H177.483C175.747 163.693 173.358 167.102 170.319 170.184C167.323 173.224 163.698 175.655 159.442 177.479C155.231 179.259 150.476 180.149 145.179 180.149ZM145.96 172.79C152.213 172.79 157.749 171.27 162.569 168.231C167.432 165.148 171.231 160.936 173.966 155.595C176.702 150.255 178.07 144.198 178.07 137.424V122.705C177.071 123.573 175.616 124.355 173.706 125.049C171.839 125.701 169.711 126.287 167.323 126.808C164.978 127.285 162.503 127.72 159.898 128.11C157.336 128.458 154.84 128.783 152.408 129.087C145.114 129.956 139.165 131.302 134.563 133.125C130.004 134.906 126.66 137.25 124.533 140.159C122.449 143.069 121.406 146.586 121.406 150.711C121.406 157.527 123.751 162.912 128.44 166.863C133.13 170.814 138.97 172.79 145.96 172.79ZM255.01 180.084C246.5 180.084 239.01 177.848 232.54 173.376C226.071 168.86 221.012 162.694 217.365 154.879C213.761 147.063 211.959 138.206 211.959 128.306C211.959 118.406 213.783 109.548 217.43 101.733C221.077 93.9172 226.136 87.7516 232.605 83.2359C239.075 78.7202 246.522 76.4624 254.945 76.4624C261.284 76.4624 267.059 77.765 272.27 80.3702C277.523 82.9754 281.865 86.601 285.296 91.2469C288.769 95.8928 290.984 101.277 291.939 107.399H283.863C282.56 100.626 279.304 95.0244 274.093 90.5956C268.926 86.1233 262.565 83.8872 255.01 83.8872C248.237 83.8872 242.201 85.7977 236.904 89.6186C231.607 93.3962 227.438 98.6283 224.399 105.315C221.36 111.958 219.84 119.578 219.84 128.176C219.84 136.642 221.316 144.241 224.269 150.971C227.221 157.658 231.346 162.955 236.643 166.863C241.941 170.771 248.063 172.724 255.01 172.724C259.917 172.724 264.389 171.748 268.427 169.794C272.508 167.84 275.917 165.061 278.652 161.457C281.388 157.853 283.19 153.641 284.058 148.822H292.134C291.179 154.987 289.008 160.415 285.621 165.104C282.234 169.794 277.914 173.463 272.66 176.111C267.407 178.76 261.523 180.084 255.01 180.084ZM317.785 178V77.9604H325.666V178H317.785ZM321.758 60.245C320.021 60.245 318.501 59.6371 317.199 58.4214C315.94 57.2056 315.31 55.7294 315.31 53.9926C315.31 52.2558 315.94 50.7795 317.199 49.5637C318.458 48.348 319.978 47.7401 321.758 47.7401C323.495 47.7401 324.993 48.348 326.252 49.5637C327.555 50.7795 328.206 52.2558 328.206 53.9926C328.206 55.7294 327.576 57.2056 326.317 58.4214C325.058 59.6371 323.538 60.245 321.758 60.245ZM396.126 180.084C387.095 180.084 379.236 177.848 372.549 173.376C365.862 168.904 360.695 162.781 357.048 155.009C353.401 147.237 351.577 138.379 351.577 128.436C351.577 118.45 353.401 109.548 357.048 101.733C360.739 93.9172 365.797 87.7516 372.223 83.2359C378.649 78.7202 385.987 76.4624 394.237 76.4624C399.838 76.4624 405.136 77.5913 410.129 79.8492C415.166 82.0636 419.594 85.2766 423.415 89.4884C427.28 93.7001 430.297 98.7803 432.468 104.729C434.683 110.677 435.79 117.364 435.79 124.789V129.739H356.592V122.509H427.844C427.844 115.258 426.368 108.723 423.415 102.905C420.463 97.0869 416.446 92.4627 411.366 89.0325C406.286 85.6023 400.576 83.8872 394.237 83.8872C387.594 83.8872 381.667 85.7543 376.457 89.4884C371.29 93.1791 367.187 98.1724 364.147 104.468C361.151 110.764 359.588 117.798 359.458 125.57V128.827C359.458 137.164 360.912 144.653 363.821 151.297C366.774 157.897 370.986 163.129 376.457 166.993C381.928 170.814 388.484 172.724 396.126 172.724C401.597 172.724 406.264 171.813 410.129 169.989C414.037 168.122 417.228 165.864 419.703 163.215C422.178 160.567 424.045 158.005 425.304 155.53L432.534 158.461C431.014 161.804 428.647 165.148 425.434 168.491C422.265 171.791 418.227 174.548 413.32 176.763C408.457 178.977 402.726 180.084 396.126 180.084Z" fill="white"/>
</g>
<g filter="url(#filter1_d_72_62)">
<path d="M52.1837 210.138V343.524H44.0425V218.735H43.2609L13.3011 238.6V229.873L43.0004 210.138H52.1837ZM85.9829 344.371C84.029 344.371 82.3574 343.698 80.9679 342.352C79.6219 340.963 78.9489 339.291 78.9489 337.337C78.9489 335.427 79.6219 333.777 80.9679 332.387C82.3574 330.998 84.029 330.303 85.9829 330.303C87.8934 330.303 89.5434 330.998 90.9328 332.387C92.3222 333.777 93.017 335.427 93.017 337.337C93.017 338.64 92.6913 339.834 92.04 340.919C91.4321 341.961 90.5854 342.808 89.4999 343.459C88.4579 344.067 87.2855 344.371 85.9829 344.371ZM137.009 210.138V343.524H128.868V218.735H128.086L98.1264 238.6V229.873L127.826 210.138H137.009ZM175.934 343.524V340.378L197.89 315.078C201.024 311.458 203.508 308.389 205.341 305.872C207.173 303.355 208.487 301.081 209.281 299.05C210.076 297.019 210.473 294.9 210.473 292.692C210.473 289.933 209.822 287.493 208.52 285.374C207.239 283.232 205.484 281.565 203.254 280.373C201.047 279.181 198.53 278.585 195.704 278.585C192.746 278.585 190.152 279.236 187.922 280.539C185.692 281.841 183.948 283.608 182.69 285.837C181.453 288.067 180.835 290.573 180.835 293.355H176.828C176.828 289.844 177.645 286.687 179.279 283.884C180.912 281.08 183.153 278.861 186.001 277.227C188.871 275.594 192.139 274.777 195.803 274.777C199.402 274.777 202.603 275.561 205.407 277.128C208.211 278.695 210.418 280.837 212.03 283.552C213.641 286.246 214.447 289.292 214.447 292.692C214.447 295.187 214.017 297.593 213.156 299.911C212.317 302.207 210.871 304.779 208.818 307.627C206.764 310.453 203.928 313.941 200.307 318.092L181.895 339.319V339.683H217.494V343.524H175.934ZM230.399 343.524L261.892 279.91V279.545H225.697V275.704H266.395V279.678L234.87 343.524H230.399Z" fill="white"/>
</g>
<defs>
<filter id="filter0_d_72_62" x="10.8143" y="35.289" width="434.301" height="154.186" filterUnits="userSpaceOnUse" color-interpolation-filters="sRGB">
<feFlood flood-opacity="0" result="BackgroundImageFix"/>
<feColorMatrix in="SourceAlpha" type="matrix" values="0 0 0 0 0 0 0 0 0 0 0 0 0 0 0 0 0 0 127 0" result="hardAlpha"/>
<feOffset/>
<feGaussianBlur stdDeviation="4.66265"/>
<feComposite in2="hardAlpha" operator="out"/>
<feColorMatrix type="matrix" values="0 0 0 0 1 0 0 0 0 1 0 0 0 0 1 0 0 0 0.4 0"/>
<feBlend mode="normal" in2="BackgroundImageFix" result="effect1_dropShadow_72_62"/>
<feBlend mode="normal" in="SourceGraphic" in2="effect1_dropShadow_72_62" result="shape"/>
</filter>
<filter id="filter1_d_72_62" x="3.97597" y="200.813" width="271.745" height="152.883" filterUnits="userSpaceOnUse" color-interpolation-filters="sRGB">
<feFlood flood-opacity="0" result="BackgroundImageFix"/>
<feColorMatrix in="SourceAlpha" type="matrix" values="0 0 0 0 0 0 0 0 0 0 0 0 0 0 0 0 0 0 127 0" result="hardAlpha"/>
<feOffset/>
<feGaussianBlur stdDeviation="4.66265"/>
<feComposite in2="hardAlpha" operator="out"/>
<feColorMatrix type="matrix" values="0 0 0 0 1 0 0 0 0 1 0 0 0 0 1 0 0 0 0.4 0"/>
<feBlend mode="normal" in2="BackgroundImageFix" result="effect1_dropShadow_72_62"/>
<feBlend mode="normal" in="SourceGraphic" in2="effect1_dropShadow_72_62" result="shape"/>
</filter>
</defs>
</svg>
