<svg width="447" height="388" viewBox="0 0 447 388" fill="none" xmlns="http://www.w3.org/2000/svg">
<g filter="url(#filter0_d_72_61)">
<path d="M20.1398 178V44.6138H28.281V170.445H93.411V178H20.1398ZM145.179 180.149C139.404 180.149 134.107 178.999 129.287 176.697C124.511 174.396 120.668 171.031 117.759 166.602C114.893 162.173 113.461 156.789 113.461 150.45C113.461 146.282 114.199 142.613 115.675 139.443C117.151 136.273 119.431 133.538 122.514 131.237C125.596 128.935 129.548 127.047 134.367 125.57C139.187 124.051 144.94 122.878 151.627 122.053C156.707 121.445 161.244 120.859 165.239 120.295C169.234 119.687 172.36 118.753 174.618 117.494C176.919 116.235 178.07 114.325 178.07 111.763V107.595C178.07 100.3 175.768 94.5034 171.166 90.2048C166.563 85.9062 160.224 83.757 152.148 83.757C144.984 83.757 138.948 85.3418 134.042 88.5114C129.179 91.6377 125.77 95.6757 123.816 100.626L116.326 97.825C118.237 93.0488 120.994 89.0759 124.598 85.9062C128.245 82.7366 132.413 80.3702 137.103 78.8071C141.836 77.244 146.785 76.4624 151.952 76.4624C156.425 76.4624 160.68 77.092 164.718 78.3512C168.799 79.6103 172.425 81.5208 175.595 84.0826C178.808 86.6444 181.348 89.9226 183.215 93.9172C185.082 97.8684 186.015 102.601 186.015 108.116V178H178.07V159.959H177.483C175.747 163.693 173.358 167.102 170.319 170.184C167.323 173.224 163.698 175.655 159.442 177.479C155.231 179.259 150.476 180.149 145.179 180.149ZM145.96 172.79C152.213 172.79 157.749 171.27 162.569 168.231C167.432 165.148 171.231 160.936 173.966 155.595C176.702 150.255 178.07 144.198 178.07 137.424V122.705C177.071 123.573 175.616 124.355 173.706 125.049C171.839 125.701 169.711 126.287 167.323 126.808C164.978 127.285 162.503 127.72 159.898 128.11C157.336 128.458 154.84 128.783 152.408 129.087C145.114 129.956 139.165 131.302 134.563 133.125C130.004 134.906 126.66 137.25 124.533 140.159C122.449 143.069 121.406 146.586 121.406 150.711C121.406 157.527 123.751 162.912 128.44 166.863C133.13 170.814 138.97 172.79 145.96 172.79ZM255.01 180.084C246.5 180.084 239.01 177.848 232.54 173.376C226.071 168.86 221.012 162.694 217.365 154.879C213.761 147.063 211.959 138.206 211.959 128.306C211.959 118.406 213.783 109.548 217.43 101.733C221.077 93.9172 226.136 87.7516 232.605 83.2359C239.075 78.7202 246.522 76.4624 254.945 76.4624C261.284 76.4624 267.059 77.765 272.27 80.3702C277.523 82.9754 281.865 86.601 285.296 91.2469C288.769 95.8928 290.984 101.277 291.939 107.399H283.863C282.56 100.626 279.304 95.0244 274.093 90.5956C268.926 86.1233 262.565 83.8872 255.01 83.8872C248.237 83.8872 242.201 85.7977 236.904 89.6186C231.607 93.3962 227.438 98.6283 224.399 105.315C221.36 111.958 219.84 119.578 219.84 128.176C219.84 136.642 221.316 144.241 224.269 150.971C227.221 157.658 231.346 162.955 236.643 166.863C241.941 170.771 248.063 172.724 255.01 172.724C259.917 172.724 264.389 171.748 268.427 169.794C272.508 167.84 275.917 165.061 278.652 161.457C281.388 157.853 283.19 153.641 284.058 148.822H292.134C291.179 154.987 289.008 160.415 285.621 165.104C282.234 169.794 277.914 173.463 272.66 176.111C267.407 178.76 261.523 180.084 255.01 180.084ZM317.785 178V77.9604H325.666V178H317.785ZM321.758 60.245C320.021 60.245 318.501 59.6371 317.199 58.4214C315.94 57.2056 315.31 55.7294 315.31 53.9926C315.31 52.2558 315.94 50.7795 317.199 49.5637C318.458 48.348 319.978 47.7401 321.758 47.7401C323.495 47.7401 324.993 48.348 326.252 49.5637C327.555 50.7795 328.206 52.2558 328.206 53.9926C328.206 55.7294 327.576 57.2056 326.317 58.4214C325.058 59.6371 323.538 60.245 321.758 60.245ZM396.126 180.084C387.095 180.084 379.236 177.848 372.549 173.376C365.862 168.904 360.695 162.781 357.048 155.009C353.401 147.237 351.577 138.379 351.577 128.436C351.577 118.45 353.401 109.548 357.048 101.733C360.739 93.9172 365.797 87.7516 372.223 83.2359C378.649 78.7202 385.987 76.4624 394.237 76.4624C399.838 76.4624 405.136 77.5913 410.129 79.8492C415.166 82.0636 419.594 85.2766 423.415 89.4884C427.28 93.7001 430.297 98.7803 432.468 104.729C434.683 110.677 435.79 117.364 435.79 124.789V129.739H356.592V122.509H427.844C427.844 115.258 426.368 108.723 423.415 102.905C420.463 97.0869 416.446 92.4627 411.366 89.0325C406.286 85.6023 400.576 83.8872 394.237 83.8872C387.594 83.8872 381.667 85.7543 376.457 89.4884C371.29 93.1791 367.187 98.1724 364.147 104.468C361.151 110.764 359.588 117.798 359.458 125.57V128.827C359.458 137.164 360.912 144.653 363.821 151.297C366.774 157.897 370.986 163.129 376.457 166.993C381.928 170.814 388.484 172.724 396.126 172.724C401.597 172.724 406.264 171.813 410.129 169.989C414.037 168.122 417.228 165.864 419.703 163.215C422.178 160.567 424.045 158.005 425.304 155.53L432.534 158.461C431.014 161.804 428.647 165.148 425.434 168.491C422.265 171.791 418.227 174.548 413.32 176.763C408.457 178.977 402.726 180.084 396.126 180.084Z" fill="white"/>
</g>
<g filter="url(#filter1_d_72_61)">
<path d="M13.4314 313.565V307.052L73.8069 210.138H78.7568V222.708H74.5233L23.266 305.293V306.01H100.315V313.565H13.4314ZM75.1746 343.524V311.35V308.419V210.138H83.1205V343.524H75.1746ZM121.267 344.371C119.313 344.371 117.642 343.698 116.252 342.352C114.906 340.963 114.233 339.291 114.233 337.337C114.233 335.427 114.906 333.777 116.252 332.387C117.642 330.998 119.313 330.303 121.267 330.303C123.178 330.303 124.828 330.998 126.217 332.387C127.606 333.777 128.301 335.427 128.301 337.337C128.301 338.64 127.975 339.834 127.324 340.919C126.716 341.961 125.87 342.808 124.784 343.459C123.742 344.067 122.57 344.371 121.267 344.371ZM151.907 343.524V337.337L195.089 287.578C201.254 280.457 206.139 274.422 209.743 269.472C213.347 264.522 215.93 260.05 217.493 256.055C219.056 252.06 219.838 247.892 219.838 243.55C219.838 238.122 218.557 233.325 215.995 229.156C213.477 224.944 210.025 221.666 205.64 219.322C201.298 216.977 196.348 215.805 190.79 215.805C184.972 215.805 179.87 217.085 175.485 219.647C171.099 222.209 167.669 225.683 165.194 230.068C162.762 234.453 161.547 239.382 161.547 244.853H153.666C153.666 237.949 155.273 231.74 158.486 226.225C161.699 220.711 166.106 216.347 171.707 213.134C177.352 209.921 183.778 208.315 190.985 208.315C198.063 208.315 204.359 209.856 209.873 212.939C215.387 216.022 219.729 220.233 222.899 225.574C226.069 230.871 227.654 236.863 227.654 243.55C227.654 248.456 226.807 253.189 225.114 257.748C223.464 262.264 220.62 267.322 216.582 272.924C212.543 278.481 206.964 285.342 199.843 293.505L163.631 335.253V335.969H233.646V343.524H151.907ZM279.276 344.452C275.656 344.452 272.421 343.69 269.573 342.167C266.748 340.621 264.507 338.502 262.851 335.809C261.217 333.115 260.378 330.035 260.334 326.569H264.407C264.496 330.676 265.92 334.042 268.679 336.67C271.439 339.297 274.971 340.61 279.276 340.61C282.588 340.61 285.502 339.815 288.019 338.226C290.558 336.614 292.544 334.429 293.979 331.669C295.414 328.909 296.121 325.797 296.099 322.331C296.099 318.666 295.326 315.465 293.781 312.727C292.235 309.99 290.171 307.87 287.588 306.369C285.005 304.868 282.146 304.106 279.011 304.084C276.539 304.084 274.221 304.537 272.057 305.442C269.894 306.325 268.05 307.462 266.527 308.853L261.858 308.19L265.864 275.704H297.655V279.545H269.408L266.295 304.945H266.626C268.216 303.532 270.103 302.395 272.289 301.534C274.497 300.651 276.892 300.209 279.475 300.209C283.272 300.209 286.738 301.137 289.873 302.991C293.03 304.846 295.536 307.429 297.39 310.74C299.267 314.052 300.194 317.904 300.172 322.297C300.15 326.536 299.245 330.322 297.457 333.656C295.668 336.99 293.196 339.628 290.039 341.571C286.904 343.491 283.316 344.452 279.276 344.452ZM331.696 344.452C327.678 344.452 324.091 343.69 320.934 342.167C317.777 340.621 315.271 338.513 313.417 335.842C311.584 333.148 310.635 330.057 310.569 326.569H314.774C314.841 329.329 315.624 331.768 317.126 333.888C318.627 335.985 320.636 337.63 323.153 338.822C325.691 340.014 328.517 340.61 331.63 340.61C335.008 340.61 337.966 339.948 340.505 338.623C343.066 337.299 345.064 335.51 346.499 333.259C347.934 330.985 348.651 328.446 348.651 325.642C348.651 322.64 347.868 320.012 346.3 317.761C344.733 315.487 342.547 313.721 339.743 312.462C336.94 311.182 333.683 310.541 329.974 310.541H327.458V306.7H329.974C333.131 306.7 335.957 306.126 338.452 304.978C340.947 303.808 342.911 302.163 344.346 300.044C345.803 297.924 346.532 295.419 346.532 292.527C346.532 289.811 345.903 287.405 344.644 285.308C343.386 283.21 341.642 281.565 339.412 280.373C337.204 279.181 334.61 278.585 331.63 278.585C328.76 278.585 326.155 279.17 323.815 280.34C321.497 281.51 319.653 283.155 318.285 285.274C316.916 287.394 316.22 289.855 316.198 292.659H312.125C312.169 289.149 313.052 286.047 314.774 283.354C316.518 280.66 318.848 278.563 321.762 277.062C324.698 275.538 328.009 274.777 331.696 274.777C335.449 274.777 338.739 275.561 341.565 277.128C344.413 278.695 346.62 280.815 348.188 283.486C349.777 286.157 350.572 289.127 350.572 292.394C350.572 296.324 349.479 299.691 347.294 302.494C345.13 305.276 342.194 307.208 338.485 308.29V308.654C342.878 309.625 346.355 311.623 348.916 314.648C351.477 317.672 352.758 321.337 352.758 325.642C352.758 329.174 351.853 332.365 350.042 335.212C348.232 338.06 345.737 340.312 342.558 341.968C339.401 343.624 335.781 344.452 331.696 344.452Z" fill="white"/>
</g>
<defs>
<filter id="filter0_d_72_61" x="10.8146" y="35.289" width="434.301" height="154.186" filterUnits="userSpaceOnUse" color-interpolation-filters="sRGB">
<feFlood flood-opacity="0" result="BackgroundImageFix"/>
<feColorMatrix in="SourceAlpha" type="matrix" values="0 0 0 0 0 0 0 0 0 0 0 0 0 0 0 0 0 0 127 0" result="hardAlpha"/>
<feOffset/>
<feGaussianBlur stdDeviation="4.66265"/>
<feComposite in2="hardAlpha" operator="out"/>
<feColorMatrix type="matrix" values="0 0 0 0 1 0 0 0 0 1 0 0 0 0 1 0 0 0 0.4 0"/>
<feBlend mode="normal" in2="BackgroundImageFix" result="effect1_dropShadow_72_61"/>
<feBlend mode="normal" in="SourceGraphic" in2="effect1_dropShadow_72_61" result="shape"/>
</filter>
<filter id="filter1_d_72_61" x="4.1061" y="198.989" width="357.977" height="154.787" filterUnits="userSpaceOnUse" color-interpolation-filters="sRGB">
<feFlood flood-opacity="0" result="BackgroundImageFix"/>
<feColorMatrix in="SourceAlpha" type="matrix" values="0 0 0 0 0 0 0 0 0 0 0 0 0 0 0 0 0 0 127 0" result="hardAlpha"/>
<feOffset/>
<feGaussianBlur stdDeviation="4.66265"/>
<feComposite in2="hardAlpha" operator="out"/>
<feColorMatrix type="matrix" values="0 0 0 0 1 0 0 0 0 1 0 0 0 0 1 0 0 0 0.4 0"/>
<feBlend mode="normal" in2="BackgroundImageFix" result="effect1_dropShadow_72_61"/>
<feBlend mode="normal" in="SourceGraphic" in2="effect1_dropShadow_72_61" result="shape"/>
</filter>
</defs>
</svg>
