<svg width="315" height="34" viewBox="0 0 315 34" fill="none" xmlns="http://www.w3.org/2000/svg">
<path d="M268.833 0.195029C271.104 -0.0650096 273.419 -0.0650096 275.734 0.195029L275.691 0.498405C276.171 0.585085 276.651 0.671767 277.132 0.758446C277.831 1.01848 278.53 1.23518 279.228 1.49522C280.146 2.0153 281.107 2.49203 281.936 3.09879C283.989 4.87572 285.824 7.0427 286.654 9.64309C286.872 10.5532 287.09 11.5067 287.309 12.4168C287.658 14.3238 287.221 16.2307 287.047 18.1377C285.911 21.9082 283.334 25.072 279.884 26.979C279.84 27.0223 279.753 27.0656 279.709 27.0656C279.228 26.8923 278.661 27.109 278.399 27.5424C277.787 27.3257 277.394 27.499 277.176 28.0625C276.608 28.1491 276.084 28.2358 275.516 28.3658C271.104 29.1893 266.518 28.1925 262.806 25.6788C261.408 24.5519 260.185 23.2084 259.181 21.7349C259.006 21.3882 258.831 21.0414 258.656 20.6947C258.438 20.218 258.263 19.7412 258.089 19.2645C257.958 18.8744 257.783 18.4411 257.652 18.051C257.565 17.3576 257.477 16.6641 257.39 15.9707C257.084 14.9305 257.084 13.847 257.39 12.8502C257.477 12.1568 257.565 11.4634 257.652 10.7699C257.783 10.3799 257.958 9.94647 258.089 9.55641C258.394 8.81963 258.7 8.03951 259.049 7.30274C260.709 4.529 263.242 2.40535 266.256 1.23518C266.78 1.06182 267.261 0.888467 267.785 0.671768L268.877 0.585083V0.238371M268.964 5.82919C266.868 6.69598 265.164 8.29955 264.203 10.3365C264.072 10.7699 263.941 11.16 263.81 11.5934C263.374 13.4136 263.374 15.3206 263.854 17.0975C263.941 17.4009 264.116 18.0076 264.203 18.311L264.378 17.921C264.378 18.1377 264.378 18.5711 264.378 18.7878C264.684 19.1778 264.99 19.5245 265.383 19.8713C266.082 21.5182 267.872 22.2116 269.357 22.905C269.794 22.9484 270.231 23.0351 270.668 23.1217C274.599 24.0319 279.01 21.8649 280.495 18.051C281.456 15.2773 281.281 12.2435 280.058 9.59974L279.884 9.46972C279.447 8.55959 278.792 7.77948 277.962 7.21606C277.307 6.52263 276.433 6.17591 275.647 5.78585L274.686 5.61249C272.764 5.04908 270.799 5.35245 268.964 5.82919ZM177.373 0.498405C180.212 0.541745 183.051 0.498405 185.934 0.498405C185.934 0.888463 185.934 1.27852 185.934 1.66858V2.10197C185.89 7.34608 185.934 12.5902 185.89 17.8343C184.536 17.2709 183.182 16.7508 181.785 16.2741L181.129 16.0574L180.824 15.9707C180.474 15.754 180.125 15.5373 179.775 15.3206C180.431 13.1103 179.906 10.7266 180.212 8.47292H179.339C179.295 8.64627 179.208 8.99299 179.164 9.16635C178.64 10.9433 177.985 12.6335 177.198 14.3238L176.15 14.1504C175.277 13.717 174.359 13.3703 173.442 13.0236C173.093 12.8936 172.743 12.7635 172.394 12.5902C172.743 11.55 173.136 10.5532 173.573 9.55641C173.792 8.99299 174.01 8.42958 174.228 7.82282C174.578 7.04271 174.884 6.30593 175.189 5.52581C175.408 4.9624 175.626 4.39898 175.844 3.79223C176.194 3.05545 176.5 2.27533 176.762 1.49522C176.936 1.1485 177.111 0.758445 177.286 0.411727M231.096 0.45507C236.206 0.498409 241.317 0.325049 246.383 0.541748C247.038 0.758446 247.65 0.888464 248.305 1.06182C249.703 1.62524 250.926 2.53537 251.93 3.66221C252.236 4.0956 252.542 4.529 252.891 4.9624C253.109 5.56915 253.328 6.13257 253.503 6.73933C253.852 9.59975 253.502 12.5902 251.93 15.1039C250.838 16.4908 249.135 17.0108 247.693 17.8343C247.999 18.4411 248.392 18.9611 248.742 19.5245C249.703 21.0414 250.62 22.6017 251.624 24.0752C251.712 24.2486 251.843 24.5519 251.93 24.682C251.974 25.202 252.149 26.0255 252.847 26.0255C253.197 26.6756 253.59 27.239 254.027 27.8024C251.799 28.4525 249.441 28.0191 247.169 28.1925C245.815 25.8521 244.461 23.4684 243.107 21.1281C242.758 20.5213 242.408 19.9146 242.059 19.3512C241.928 19.1345 241.71 18.7878 241.579 18.5711C240.094 18.5277 238.652 18.5277 237.167 18.5277C237.211 21.7349 237.167 24.942 237.167 28.1491C235.158 28.1491 233.149 28.1491 231.14 28.1491C231.14 18.9611 231.14 9.72977 231.14 0.541748M237.211 13.3703L238.609 13.2836C240.53 13.327 242.452 13.327 244.374 13.2836C244.767 13.1103 245.204 12.9802 245.641 12.8502C246.733 12.2868 247.475 11.2467 247.693 10.0331C247.562 9.59974 248.087 8.51625 247.344 8.55959L247.519 7.95283C246.82 6.99936 245.859 6.26259 244.767 5.82919C242.234 5.78585 239.701 5.82919 237.167 5.78585C237.167 8.29955 237.167 10.8133 237.211 13.3703ZM291.807 0.541748C296.306 0.498408 300.849 0.541748 305.391 0.541748C306.614 0.498408 307.837 0.845123 309.016 1.1485C310.458 1.75526 311.768 2.66539 312.816 3.79223L312.904 3.92225C313.559 4.91906 314.083 6.00255 314.476 7.17272C314.869 10.0331 314.651 13.2836 312.467 15.4506C311.462 16.6641 309.977 17.2275 308.536 17.7476C308.448 18.3544 309.06 18.8311 309.322 19.3512C310.195 20.6947 311.025 22.0382 311.899 23.3818C312.729 24.8553 313.646 26.3289 314.651 27.7157C314.738 27.8458 314.913 28.0625 315 28.1925L314.738 28.2358C312.423 28.1925 310.152 28.2792 307.837 28.2358C306.352 25.5488 304.78 22.9484 303.295 20.2613C303.207 20.0446 302.989 19.6546 302.858 19.4812L302.465 18.7878C301.067 18.051 299.32 18.441 297.835 18.5277C297.616 21.6915 297.835 24.8987 297.66 28.1058C295.695 28.1058 293.729 28.1058 291.807 28.0191C291.807 18.8311 291.764 9.72977 291.807 0.541748ZM297.835 5.82919C297.835 8.29955 297.791 10.8133 297.835 13.2836L297.66 13.327C299.669 13.5437 301.678 13.4136 303.731 13.457C304.43 13.4136 305.26 13.587 305.828 13.0669L306.308 13.0236C306.832 12.5902 307.356 12.1134 307.881 11.6801C308.492 10.4232 308.579 8.99299 308.055 7.73614C307.793 7.38942 307.488 7.12938 307.094 6.95603C306.483 6.26259 305.566 5.87253 304.605 5.91587C302.334 5.82919 300.062 5.82919 297.835 5.82919ZM191.612 0.541748C193.621 0.498408 195.674 0.541748 197.727 0.541748C197.727 7.17272 197.77 13.7604 197.727 20.3913C197.596 20.9548 197.901 22.0382 197.072 22.1683C195.455 21.6049 193.883 20.9114 192.267 20.3047L191.699 20.088C191.568 13.5437 191.656 7.0427 191.612 0.541748ZM203.361 0.541748C208.559 0.541748 213.713 0.411727 218.91 0.628426C221.269 1.19184 223.496 2.44869 224.938 4.48566C225.287 5.26577 225.636 6.04589 226.03 6.82601C226.903 10.2498 225.942 14.2371 223.016 16.4041C222.011 16.9242 220.657 17.0542 219.871 17.921C220.177 18.3544 220.57 18.7878 220.963 19.2212L221.05 19.3945C221.269 19.7846 221.531 20.1313 221.749 20.5213C223.365 23.0784 224.938 25.6354 226.554 28.1925C224.239 28.1925 221.924 28.0625 219.653 28.2358C217.906 25.4621 216.377 22.6017 214.761 19.7846C214.542 19.3945 214.324 19.0478 214.106 18.6577L213.887 18.2677C212.446 18.311 210.743 17.921 209.389 18.4844C209.17 21.1281 209.563 23.7718 209.257 26.4156L208.733 26.6323L208.122 26.3722C206.637 25.7655 205.152 25.2454 203.71 24.5953L203.405 24.4653C203.405 16.5341 203.405 8.55959 203.361 0.541748ZM209.432 5.78585C209.476 8.34289 209.389 10.8999 209.476 13.5003L209.913 13.0669L210.349 13.5437L210.917 12.9369V13.2836C213.451 13.0236 216.29 13.8904 218.561 12.4602C220.308 11.29 220.308 8.73295 219.303 7.08604L219.085 7.0427L218.124 6.17591L217.425 6.21925V5.82919C214.804 5.74251 212.14 5.78585 209.432 5.78585ZM155.141 0.801782C157.849 0.801782 160.514 0.801782 163.222 0.801782C164.488 3.96558 165.842 7.12938 167.065 10.3365C165.842 9.85978 164.619 9.46973 163.353 9.16635C160.907 8.21287 158.505 7.30274 156.059 6.30593L155.141 6.04589V5.56915C155.185 3.96558 155.141 2.36201 155.141 0.801782ZM149.027 4.91905C150.861 6.00255 152.914 6.65265 154.792 7.56278C156.102 8.1262 157.413 8.73295 158.723 9.20969C159.378 10.5099 159.902 11.8101 160.47 13.1103C161.693 15.2339 162.086 17.7476 163.484 19.7846C163.833 19.0478 164.139 18.2677 164.445 17.5309C164.881 16.4041 165.362 15.3206 165.842 14.1937C166.934 14.6705 168.114 15.1039 169.205 15.624C169.686 15.884 170.166 16.1874 170.691 16.4474C169.555 19.4379 168.114 22.2983 167.24 25.3754C166.541 27.2824 165.668 29.1026 165.056 31.0096C164.139 31.0096 163.134 31.2696 162.304 30.7929C161.911 30.3161 161.606 29.7527 161.344 29.1459C160.164 26.3289 159.072 23.4684 157.849 20.6947L157.718 20.4347C156.757 18.181 156.015 15.8407 154.836 13.6737C154.486 14.0204 154.137 14.4105 153.831 14.7572C152.652 12.2001 151.298 9.68643 150.031 7.17272C149.988 7.04271 149.856 6.826 149.813 6.69598L149.245 5.69917C149.201 5.48247 149.114 5.09241 149.027 4.91905ZM92.0279 6.00255C94.5175 5.17909 97.1381 5.22244 99.715 5.43914C100.239 5.61249 100.807 5.69917 101.375 5.82919C101.855 6.00255 102.336 6.17591 102.86 6.34927C104.257 6.95602 105.524 7.82282 106.66 8.86297C107.402 9.68643 108.057 10.5532 108.8 11.3767C108.8 11.55 108.756 11.8534 108.713 12.0268C107.14 12.6335 105.655 13.3703 104.17 14.1937L103.646 14.1504C103.166 13.4136 102.641 12.7635 101.986 12.2001C97.8369 8.60293 90.3681 10.6399 88.7084 15.8407C87.136 15.8407 85.651 15.4506 84.1223 15.1472L83.1614 14.8872L82.8993 14.8438L82.4626 14.4538C82.8557 13.8037 83.2488 13.1103 83.5545 12.4168C84.7775 10.3799 86.5245 8.64627 88.5774 7.43276L89.4072 6.99936C89.844 6.78266 90.2808 6.6093 90.7612 6.43594L92.0279 6.00255ZM120.898 15.8407C123.694 12.6769 126.271 9.33971 129.11 6.17591C131.599 6.13257 134.089 6.13257 136.579 6.17591C136.317 6.43595 136.055 6.69599 135.792 6.95603C135.356 7.38942 134.963 7.86616 134.569 8.29955C131.425 11.7667 128.324 15.3206 125.179 18.7444L126.052 19.6979C126.708 20.4347 127.319 21.2148 127.974 21.9516C128.542 22.6017 129.11 23.2951 129.678 23.9452L130.42 24.8553C127.537 24.1619 124.48 23.8152 121.685 22.6883L121.335 22.5583C118.54 22.2116 115.876 21.4748 113.124 20.8247C113.08 15.9273 113.168 10.9866 113.08 6.08923C115.089 6.08923 117.099 6.04589 119.108 6.13257C119.108 6.73932 119.064 7.34608 119.02 7.9095L118.977 8.25622C118.889 11.42 118.933 14.5838 118.933 17.7476C119.545 17.4009 120.025 16.9242 120.462 16.3607C120.549 16.2741 120.767 15.9707 120.898 15.8407ZM61.9343 9.07967C62.3274 8.12619 62.7641 7.12938 63.1136 6.17591C65.6468 6.13257 68.1364 6.17591 70.6697 6.13257C70.8444 6.47929 71.0191 6.86934 71.1938 7.21606C71.2812 7.43276 71.4559 7.82282 71.5433 8.03952L72.0237 9.25303C72.1984 9.72976 72.4168 10.2498 72.5915 10.7699C72.8099 11.29 73.072 11.8534 73.334 12.3301L73.5087 12.5902L73.6398 13.4136C70.0146 13.0669 66.433 12.2868 62.8078 12.0701C62.1527 11.9834 61.5412 11.8534 60.886 11.7667C60.9734 11.42 61.1044 11.0733 61.2354 10.7699C61.4538 10.2065 61.7159 9.64309 61.9343 9.07967ZM0 6.56596H0.524125C5.28494 6.69598 10.0021 6.52263 14.7629 6.60931C17.864 6.69599 21.3582 8.25622 22.188 11.5067C23.0179 13.5437 22.2317 15.7106 21.2708 17.5743C21.0087 17.8343 20.703 18.0943 20.3973 18.3544C19.5237 18.7011 18.5628 18.9611 17.9077 19.6546L18.4755 19.8713C18.9996 20.0446 19.5674 20.218 20.1352 20.4347C20.5283 20.6947 20.8777 20.9981 21.2708 21.3015C21.7076 21.7782 22.057 22.2983 22.4501 22.8184L22.4938 22.905C23.2363 24.6386 23.411 26.5456 23.0179 28.3658C22.188 30.8362 20.1352 32.6565 17.5582 33.2632L17.2962 33.3066C11.5308 33.5233 5.76539 33.2199 0.0436765 33.4366C0.0436765 24.5086 0.0436772 15.5373 0 6.56596ZM5.9401 11.6367C5.9401 13.5437 5.85275 15.494 6.02746 17.4009C8.77912 17.4442 11.5745 17.5743 14.3698 17.4009C16.51 17.1409 17.9077 14.1504 16.0732 12.7202C15.8548 12.4168 15.5928 12.2001 15.2433 12.0268C14.6319 11.3333 13.5836 11.55 12.7537 11.5067C10.4825 11.5934 8.21131 11.3767 5.9401 11.6367ZM6.07113 22.4283C6.11481 24.3786 6.11481 26.3289 6.07113 28.2792C9.08486 28.3225 12.1423 28.5392 15.1123 28.1491C15.8985 27.9758 16.7284 27.369 16.8157 26.5456L16.9468 26.9356C17.0778 26.0255 17.0778 25.072 17.0341 24.1619H16.772C16.6847 23.9452 16.51 23.5551 16.4226 23.3384L15.8985 23.3818L16.2479 22.9484L15.7675 22.9917C15.025 22.1249 13.7583 22.2549 12.7101 22.2549C10.5262 22.3416 8.29867 22.1683 6.07113 22.4283ZM27.4293 33.4366C27.473 24.4653 27.4293 15.4939 27.4293 6.52263C29.3511 6.52263 31.2729 6.52263 33.1947 6.52263C33.1947 7.12938 33.1947 7.6928 33.1947 8.29955C33.1073 14.8438 33.3257 21.4315 33.1073 28.0191L33.3257 28.1058C33.8062 28.3658 34.4176 28.2792 34.9418 28.2792C38.2612 28.2358 41.537 28.3225 44.8565 28.2358C44.7691 29.9261 44.8128 31.6597 44.8128 33.3499H33.6751C31.6223 33.3499 29.6131 33.1332 27.5603 33.3932L27.4293 33.4366ZM58.2654 12.7635C60.1435 13.1536 62.1963 13.2836 63.8561 14.2804L63.4193 15.2339C62.24 17.921 61.2791 20.6947 60.1872 23.4251C63.0699 23.9019 66.0399 23.5118 68.9663 23.6418C68.9226 23.4685 68.7916 23.0784 68.7042 22.905C68.2675 21.6482 67.7433 20.4347 67.2629 19.1778C66.9135 18.311 66.5641 17.4442 66.2583 16.5341L66.2146 16.2741C65.9089 15.624 65.6468 15.0172 65.3411 14.3671C67.6997 14.8005 70.0146 15.3639 72.2858 16.1007C72.5478 16.6641 72.7662 17.2709 73.0283 17.8343C73.2467 18.3977 73.4651 18.9611 73.6834 19.5245C73.8581 19.9146 74.0329 20.348 74.1639 20.738C75.4305 25.0287 77.4397 29.0593 79.0557 33.2632C76.9156 33.1765 74.7317 33.5666 72.6352 33.1332C71.9364 31.6597 71.4559 30.0561 70.7571 28.5825C66.6077 28.5825 62.4584 28.5392 58.2654 28.6259C57.6539 30.2294 57.0424 31.833 56.4746 33.4799C54.9022 33.4366 53.3299 33.4366 51.7138 33.4366H50.6656L49.5299 33.3499C49.6173 33.2199 49.8357 32.9598 49.923 32.8732C50.2725 32.0064 50.6656 31.1396 50.9713 30.2728C51.2334 29.6227 51.4954 28.9292 51.7575 28.2792C52.1069 27.5424 52.4126 26.7623 52.7184 26.0255C52.9804 25.3321 53.2425 24.682 53.5046 24.0319C53.7666 23.3818 54.0287 22.6883 54.3344 22.0382C55.2953 19.7846 56.0815 17.4442 57.1735 15.2339C57.3482 14.6272 57.5666 14.0204 57.8286 13.4136L58.2654 12.7635ZM151.604 15.9273C151.909 16.6641 152.259 17.4009 152.564 18.1377C152.958 19.0045 153.351 19.9146 153.787 20.7814C154.705 23.0784 155.666 25.2887 156.714 27.5424C156.889 28.2792 157.849 29.4927 157.02 30.0561C155.229 30.2294 153.394 30.1861 151.604 30.1861C151.604 25.4621 151.604 20.6947 151.604 15.9273ZM79.8419 17.0542C81.6764 17.4442 83.5545 17.7909 85.4326 18.1377C85.3889 19.6546 85.3016 21.2581 86.0004 22.6883C86.0441 22.8617 86.1314 23.1217 86.1751 23.2951C86.9613 24.8987 87.9659 26.4589 89.5819 27.369C89.975 27.6291 90.4118 27.8024 90.8049 28.0191C92.9888 28.9293 95.4784 29.0159 97.7496 28.1925C99.1472 27.4124 100.545 26.4156 101.331 24.942C103.078 25.4621 104.651 26.5889 106.441 27.0656C106.441 27.239 106.398 27.5857 106.354 27.7591C106.092 28.1058 105.83 28.4092 105.611 28.7559C104.476 30.2294 103.078 31.443 101.462 32.3531C99.2783 32.9165 97.1381 33.7833 94.8669 34C91.7221 33.7833 88.7521 32.6565 85.8694 31.5296C85.1705 31.0529 84.4717 30.5762 83.8166 30.0561C83.0304 29.1893 82.2442 28.2792 81.5453 27.369C79.9293 24.1186 79.1431 20.5213 79.8419 17.0542ZM172.918 17.9643C173.573 18.181 174.185 18.441 174.84 18.6577C176.238 19.2212 177.635 19.7412 179.033 20.3047C179.033 20.478 179.033 20.8247 179.077 20.9981V21.3881C179.033 24.4653 178.989 27.5424 179.077 30.5762C177.548 30.5762 176.019 30.6195 174.49 30.6195L173.53 30.5762H172.918C172.918 26.4156 172.962 22.2116 172.918 17.9643ZM109.979 22.905C110.984 23.0351 111.988 23.2518 112.949 23.5551C114.129 23.8585 115.308 24.1619 116.531 24.4219L116.4 25.1154C116.4 25.2454 116.356 25.5054 116.312 25.6354C116.356 28.2358 116.443 30.8795 116.269 33.4799C114.609 33.4799 112.949 33.4799 111.246 33.4799H110.372C110.154 32.8732 110.067 32.2231 110.154 31.6163C109.979 28.7126 110.198 25.8088 109.979 22.905ZM184.711 22.515C186.72 23.3384 188.773 24.0752 190.782 24.8987C190.782 25.072 190.782 25.3321 190.826 25.5054V26.1555C190.782 27.6724 190.782 29.1893 190.782 30.6628C188.773 30.6628 186.72 30.7062 184.711 30.6195C184.755 27.8891 184.755 25.202 184.711 22.515ZM120.68 25.4621C123.738 26.4589 127.013 26.8923 130.027 28.0625C130.289 28.3658 130.551 28.6692 130.813 29.0159C132.036 30.5328 133.303 32.0497 134.657 33.4799C132.036 33.4366 129.416 33.6099 126.795 33.3932C125.441 31.2263 123.694 29.3193 122.121 27.3257L121.99 27.1523L121.073 25.9388L120.68 25.4621ZM196.46 27.239C197.989 27.4557 199.299 28.2358 200.74 28.7126C201.265 29.1026 202.619 29.0593 202.619 29.8827C202.619 30.0994 202.575 30.4895 202.575 30.6628C201.09 30.6195 199.649 30.6628 198.163 30.6628H197.29H196.504C196.46 29.536 196.46 28.4092 196.46 27.239Z" fill="white"/>
</svg>
