<?xml version="1.0" encoding="utf-8"?>
<!-- Generator: Adobe Illustrator 25.4.1, SVG Export Plug-In . SVG Version: 6.00 Build 0)  -->
<svg version="1.0" id="Layer_1" xmlns="http://www.w3.org/2000/svg" xmlns:xlink="http://www.w3.org/1999/xlink" x="0px" y="0px"
	 viewBox="0 0 849.2 528.5" style="enable-background:new 0 0 849.2 528.5;" xml:space="preserve">
<path d="M679.5,225.5c5.2-0.6,10.5-0.6,15.8,0l-0.1,0.7c1.1,0.2,2.2,0.4,3.3,0.6c1.6,0.6,3.2,1.1,4.8,1.7c2.1,1.2,4.3,2.3,6.2,3.7
	c4.7,4.1,8.9,9.1,10.8,15.1c0.5,2.1,1,4.3,1.5,6.4c0.8,4.4-0.2,8.8-0.6,13.2c-2.6,8.7-8.5,16-16.4,20.4c-0.1,0.1-0.3,0.2-0.4,0.2
	c-1.1-0.4-2.4,0.1-3,1.1c-1.4-0.5-2.3-0.1-2.8,1.2c-1.3,0.2-2.5,0.4-3.8,0.7c-10.1,1.9-20.6-0.4-29.1-6.2c-3.2-2.6-6-5.7-8.3-9.1
	c-0.4-0.8-0.8-1.6-1.2-2.4c-0.5-1.1-0.9-2.2-1.3-3.3c-0.3-0.9-0.7-1.9-1-2.8c-0.2-1.6-0.4-3.2-0.6-4.8c-0.7-2.4-0.7-4.9,0-7.2
	c0.2-1.6,0.4-3.2,0.6-4.8c0.3-0.9,0.7-1.9,1-2.8c0.7-1.7,1.4-3.5,2.2-5.2c3.8-6.4,9.6-11.3,16.5-14c1.2-0.4,2.3-0.8,3.5-1.3l2.5-0.2
	v-0.8 M679.8,238.5c-4.8,2-8.7,5.7-10.9,10.4c-0.3,1-0.6,1.9-0.9,2.9c-1,4.2-1,8.6,0.1,12.7c0.2,0.7,0.6,2.1,0.8,2.8l0.4-0.9
	c0,0.5,0,1.5,0,2c0.7,0.9,1.4,1.7,2.3,2.5c1.6,3.8,5.7,5.4,9.1,7c1,0.1,2,0.3,3,0.5c9,2.1,19.1-2.9,22.5-11.7
	c2.2-6.4,1.8-13.4-1-19.5l-0.4-0.3c-1-2.1-2.5-3.9-4.4-5.2c-1.5-1.6-3.5-2.4-5.3-3.3l-2.2-0.4C688.5,236.7,684,237.4,679.8,238.5
	 M470.1,226.2c6.5,0.1,13,0,19.6,0c0,0.9,0,1.8,0,2.7v1c-0.1,12.1,0,24.2-0.1,36.3c-3.1-1.3-6.2-2.5-9.4-3.6l-1.5-0.5l-0.7-0.2
	c-0.8-0.5-1.6-1-2.4-1.5c1.5-5.1,0.3-10.6,1-15.8h-2c-0.1,0.4-0.3,1.2-0.4,1.6c-1.2,4.1-2.7,8-4.5,11.9l-2.4-0.4
	c-2-1-4.1-1.8-6.2-2.6c-0.8-0.3-1.6-0.6-2.4-1c0.8-2.4,1.7-4.7,2.7-7c0.5-1.3,1-2.6,1.5-4c0.8-1.8,1.5-3.5,2.2-5.3
	c0.5-1.3,1-2.6,1.5-4c0.8-1.7,1.5-3.5,2.1-5.3c0.4-0.8,0.8-1.7,1.2-2.5 M593.1,226.1c11.7,0.1,23.4-0.3,35,0.2
	c1.5,0.5,2.9,0.8,4.4,1.2c3.2,1.3,6,3.4,8.3,6c0.7,1,1.4,2,2.2,3c0.5,1.4,1,2.7,1.4,4.1c0.8,6.6,0,13.5-3.6,19.3
	c-2.5,3.2-6.4,4.4-9.7,6.3c0.7,1.4,1.6,2.6,2.4,3.9c2.2,3.5,4.3,7.1,6.6,10.5c0.2,0.4,0.5,1.1,0.7,1.4c0.1,1.2,0.5,3.1,2.1,3.1
	c0.8,1.5,1.7,2.8,2.7,4.1c-5.1,1.5-10.5,0.5-15.7,0.9c-3.1-5.4-6.2-10.9-9.3-16.3c-0.8-1.4-1.6-2.8-2.4-4.1
	c-0.3-0.5-0.8-1.3-1.1-1.8c-3.4-0.1-6.7-0.1-10.1-0.1c0.1,7.4,0,14.8,0,22.2c-4.6,0-9.2,0-13.8,0c0-21.2,0-42.5,0-63.7 M607.1,255.9
	l3.2-0.2c4.4,0.1,8.8,0.1,13.2,0c0.9-0.4,1.9-0.7,2.9-1c2.5-1.3,4.2-3.7,4.7-6.5c-0.3-1,0.9-3.5-0.8-3.4l0.4-1.4
	c-1.6-2.2-3.8-3.9-6.3-4.9c-5.8-0.1-11.6,0-17.4-0.1C607,244.2,607,250,607.1,255.9 M732.1,226.3c10.3-0.1,20.7,0,31.1,0
	c2.8-0.1,5.6,0.7,8.3,1.4c3.3,1.4,6.3,3.5,8.7,6.1l0.2,0.3c1.5,2.3,2.7,4.8,3.6,7.5c0.9,6.6,0.4,14.1-4.6,19.1
	c-2.3,2.8-5.7,4.1-9,5.3c-0.2,1.4,1.2,2.5,1.8,3.7c2,3.1,3.9,6.2,5.9,9.3c1.9,3.4,4,6.8,6.3,10c0.2,0.3,0.6,0.8,0.8,1.1l-0.6,0.1
	c-5.3-0.1-10.5,0.1-15.8,0c-3.4-6.2-7-12.2-10.4-18.4c-0.2-0.5-0.7-1.4-1-1.8l-0.9-1.6c-3.2-1.7-7.2-0.8-10.6-0.6
	c-0.5,7.3,0,14.7-0.4,22.1c-4.5,0-9,0-13.4-0.2C732.1,268.5,732,247.5,732.1,226.3 M745.9,238.5c0,5.7-0.1,11.5,0,17.2l-0.4,0.1
	c4.6,0.5,9.2,0.2,13.9,0.3c1.6-0.1,3.5,0.3,4.8-0.9l1.1-0.1c1.2-1,2.4-2.1,3.6-3.1c1.4-2.9,1.6-6.2,0.4-9.1
	c-0.6-0.8-1.3-1.4-2.2-1.8c-1.4-1.6-3.5-2.5-5.7-2.4C756.2,238.5,751,238.5,745.9,238.5 M502.7,226.3c4.6-0.1,9.3,0,14,0
	c0,15.3,0.1,30.5,0,45.8c-0.3,1.3,0.4,3.8-1.5,4.1c-3.7-1.3-7.3-2.9-11-4.3l-1.3-0.5C502.6,256.3,502.8,241.3,502.7,226.3
	 M529.6,226.3c11.9,0,23.7-0.3,35.6,0.2c5.4,1.3,10.5,4.2,13.8,8.9c0.8,1.8,1.6,3.6,2.5,5.4c2,7.9-0.2,17.1-6.9,22.1
	c-2.3,1.2-5.4,1.5-7.2,3.5c0.7,1,1.6,2,2.5,3l0.2,0.4c0.5,0.9,1.1,1.7,1.6,2.6c3.7,5.9,7.3,11.8,11,17.7c-5.3,0-10.6-0.3-15.8,0.1
	c-4-6.4-7.5-13-11.2-19.5c-0.5-0.9-1-1.7-1.5-2.6l-0.5-0.9c-3.3,0.1-7.2-0.8-10.3,0.5c-0.5,6.1,0.4,12.2-0.3,18.3l-1.2,0.5l-1.4-0.6
	c-3.4-1.4-6.8-2.6-10.1-4.1l-0.7-0.3C529.7,263.2,529.7,244.8,529.6,226.3 M543.5,238.4c0.1,5.9-0.1,11.8,0.1,17.8l1-1l1,1.1
	l1.3-1.4v0.8c5.8-0.6,12.3,1.4,17.5-1.9c4-2.7,4-8.6,1.7-12.4l-0.5-0.1l-2.2-2l-1.6,0.1v-0.9C555.8,238.3,549.7,238.4,543.5,238.4
	 M419.2,226.9c6.2,0,12.3,0,18.5,0c2.9,7.3,6,14.6,8.8,22c-2.8-1.1-5.6-2-8.5-2.7c-5.6-2.2-11.1-4.3-16.7-6.6l-2.1-0.6v-1.1
	C419.3,234.2,419.2,230.5,419.2,226.9 M405.2,236.4c4.2,2.5,8.9,4,13.2,6.1c3,1.3,6,2.7,9,3.8c1.5,3,2.7,6,4,9
	c2.8,4.9,3.7,10.7,6.9,15.4c0.8-1.7,1.5-3.5,2.2-5.2c1-2.6,2.1-5.1,3.2-7.7c2.5,1.1,5.2,2.1,7.7,3.3c1.1,0.6,2.2,1.3,3.4,1.9
	c-2.6,6.9-5.9,13.5-7.9,20.6c-1.6,4.4-3.6,8.6-5,13c-2.1,0-4.4,0.6-6.3-0.5c-0.9-1.1-1.6-2.4-2.2-3.8c-2.7-6.5-5.2-13.1-8-19.5
	l-0.3-0.6c-2.2-5.2-3.9-10.6-6.6-15.6c-0.8,0.8-1.6,1.7-2.3,2.5c-2.7-5.9-5.8-11.7-8.7-17.5c-0.1-0.3-0.4-0.8-0.5-1.1l-1.3-2.3
	C405.6,237.7,405.4,236.8,405.2,236.4 M274.7,238.9c5.7-1.9,11.7-1.8,17.6-1.3c1.2,0.4,2.5,0.6,3.8,0.9c1.1,0.4,2.2,0.8,3.4,1.2
	c3.2,1.4,6.1,3.4,8.7,5.8c1.7,1.9,3.2,3.9,4.9,5.8c0,0.4-0.1,1.1-0.2,1.5c-3.6,1.4-7,3.1-10.4,5l-1.2-0.1c-1.1-1.7-2.3-3.2-3.8-4.5
	c-9.5-8.3-26.6-3.6-30.4,8.4c-3.6,0-7-0.9-10.5-1.6l-2.2-0.6l-0.6-0.1l-1-0.9c0.9-1.5,1.8-3.1,2.5-4.7c2.8-4.7,6.8-8.7,11.5-11.5
	l1.9-1c1-0.5,2-0.9,3.1-1.3L274.7,238.9 M340.8,261.6c6.4-7.3,12.3-15,18.8-22.3c5.7-0.1,11.4-0.1,17.1,0c-0.6,0.6-1.2,1.2-1.8,1.8
	c-1,1-1.9,2.1-2.8,3.1c-7.2,8-14.3,16.2-21.5,24.1l2,2.2c1.5,1.7,2.9,3.5,4.4,5.2c1.3,1.5,2.6,3.1,3.9,4.6l1.7,2.1
	c-6.6-1.6-13.6-2.4-20-5l-0.8-0.3c-6.4-0.8-12.5-2.5-18.8-4c-0.1-11.3,0.1-22.7-0.1-34c4.6,0,9.2-0.1,13.8,0.1
	c0,1.4-0.1,2.8-0.2,4.1l-0.1,0.8c-0.2,7.3-0.1,14.6-0.1,21.9c1.4-0.8,2.5-1.9,3.5-3.2C340,262.6,340.5,261.9,340.8,261.6 M205.8,246
	c0.9-2.2,1.9-4.5,2.7-6.7c5.8-0.1,11.5,0,17.3-0.1c0.4,0.8,0.8,1.7,1.2,2.5c0.2,0.5,0.6,1.4,0.8,1.9l1.1,2.8
	c0.4,1.1,0.9,2.3,1.3,3.5c0.5,1.2,1.1,2.5,1.7,3.6l0.4,0.6l0.3,1.9c-8.3-0.8-16.5-2.6-24.8-3.1c-1.5-0.2-2.9-0.5-4.4-0.7
	c0.2-0.8,0.5-1.6,0.8-2.3C204.7,248.6,205.3,247.3,205.8,246 M64,240.2h1.2c10.9,0.3,21.7-0.1,32.6,0.1c7.1,0.2,15.1,3.8,17,11.3
	c1.9,4.7,0.1,9.7-2.1,14c-0.6,0.6-1.3,1.2-2,1.8c-2,0.8-4.2,1.4-5.7,3l1.3,0.5c1.2,0.4,2.5,0.8,3.8,1.3c0.9,0.6,1.7,1.3,2.6,2
	c1,1.1,1.8,2.3,2.7,3.5l0.1,0.2c1.7,4,2.1,8.4,1.2,12.6c-1.9,5.7-6.6,9.9-12.5,11.3l-0.6,0.1c-13.2,0.5-26.4-0.2-39.5,0.3
	C64.1,281.6,64.1,260.9,64,240.2 M77.6,251.9c0,4.4-0.2,8.9,0.2,13.3c6.3,0.1,12.7,0.4,19.1,0c4.9-0.6,8.1-7.5,3.9-10.8
	c-0.5-0.7-1.1-1.2-1.9-1.6c-1.4-1.6-3.8-1.1-5.7-1.2C88,251.8,82.8,251.3,77.6,251.9 M77.9,276.8c0.1,4.5,0.1,9,0,13.5
	c6.9,0.1,13.9,0.6,20.7-0.3c1.8-0.4,3.7-1.8,3.9-3.7l0.3,0.9c0.3-2.1,0.3-4.3,0.2-6.4h-0.6c-0.2-0.5-0.6-1.4-0.8-1.9l-1.2,0.1l0.8-1
	l-1.1,0.1c-1.7-2-4.6-1.7-7-1.7C88.1,276.6,83,276.2,77.9,276.8 M126.8,302.2c0.1-20.7,0-41.4,0-62.1c4.4,0,8.8,0,13.2,0
	c0,1.4,0,2.7,0,4.1c-0.2,15.1,0.3,30.3-0.2,45.5l0.5,0.2c1.1,0.6,2.5,0.4,3.7,0.4c7.6-0.1,15.1,0.1,22.7-0.1
	c-0.2,3.9-0.1,7.9-0.1,11.8l-25.5,0c-4.7,0-9.3-0.5-14,0.1L126.8,302.2 M197.4,254.5c4.3,0.9,9,1.2,12.8,3.5l-1,2.2
	c-2.7,6.2-4.9,12.6-7.4,18.9c6.6,1.1,13.4,0.2,20.1,0.5c-0.1-0.4-0.4-1.3-0.6-1.7c-1-2.9-2.2-5.7-3.3-8.6c-0.8-2-1.6-4-2.3-6.1
	l-0.1-0.6c-0.7-1.5-1.3-2.9-2-4.4c5.4,1,10.7,2.3,15.9,4c0.6,1.3,1.1,2.7,1.7,4c0.5,1.3,1,2.6,1.5,3.9c0.4,0.9,0.8,1.9,1.1,2.8
	c2.9,9.9,7.5,19.2,11.2,28.9c-4.9-0.2-9.9,0.7-14.7-0.3c-1.6-3.4-2.7-7.1-4.3-10.5c-9.5,0-19-0.1-28.6,0.1
	c-1.4,3.7-2.8,7.4-4.1,11.2c-3.6-0.1-7.2-0.1-10.9-0.1h-2.4l-2.6-0.2c0.2-0.3,0.7-0.9,0.9-1.1c0.8-2,1.7-4,2.4-6
	c0.6-1.5,1.2-3.1,1.8-4.6c0.8-1.7,1.5-3.5,2.2-5.2c0.6-1.6,1.2-3.1,1.8-4.6s1.2-3.1,1.9-4.6c2.2-5.2,4-10.6,6.5-15.7
	c0.4-1.4,0.9-2.8,1.5-4.2L197.4,254.5 M411.1,261.8c0.7,1.7,1.5,3.4,2.2,5.1c0.9,2,1.8,4.1,2.8,6.1c2.1,5.3,4.3,10.4,6.7,15.6
	c0.4,1.7,2.6,4.5,0.7,5.8c-4.1,0.4-8.3,0.3-12.4,0.3C411.1,283.8,411.1,272.8,411.1,261.8 M246.8,264.4c4.2,0.9,8.5,1.7,12.8,2.5
	c-0.1,3.5-0.3,7.2,1.3,10.5c0.1,0.4,0.3,1,0.4,1.4c1.8,3.7,4.1,7.3,7.8,9.4c0.9,0.6,1.9,1,2.8,1.5c5,2.1,10.7,2.3,15.9,0.4
	c3.2-1.8,6.4-4.1,8.2-7.5c4,1.2,7.6,3.8,11.7,4.9c0,0.4-0.1,1.2-0.2,1.6c-0.6,0.8-1.2,1.5-1.7,2.3c-2.6,3.4-5.8,6.2-9.5,8.3
	c-5,1.3-9.9,3.3-15.1,3.8c-7.2-0.5-14-3.1-20.6-5.7c-1.6-1.1-3.2-2.2-4.7-3.4c-1.8-2-3.6-4.1-5.2-6.2
	C247,280.7,245.2,272.4,246.8,264.4 M459.9,266.5c1.5,0.5,2.9,1.1,4.4,1.6c3.2,1.3,6.4,2.5,9.6,3.8c0,0.4,0,1.2,0.1,1.6v0.9
	c-0.1,7.1-0.2,14.2,0,21.2c-3.5,0-7,0.1-10.5,0.1l-2.2-0.1h-1.4C459.9,286,460,276.3,459.9,266.5 M315.8,277.9
	c2.3,0.3,4.6,0.8,6.8,1.5c2.7,0.7,5.4,1.4,8.2,2l-0.3,1.6c0,0.3-0.1,0.9-0.2,1.2c0.1,6,0.3,12.1-0.1,18.1c-3.8,0-7.6,0-11.5,0h-2
	c-0.5-1.4-0.7-2.9-0.5-4.3C315.8,291.3,316.3,284.6,315.8,277.9 M486.9,277c4.6,1.9,9.3,3.6,13.9,5.5c0,0.4,0,1,0.1,1.4v1.5
	c-0.1,3.5-0.1,7-0.1,10.4c-4.6,0-9.3,0.1-13.9-0.1C487,289.4,487,283.2,486.9,277 M340.3,283.8c7,2.3,14.5,3.3,21.4,6
	c0.6,0.7,1.2,1.4,1.8,2.2c2.8,3.5,5.7,7,8.8,10.3c-6-0.1-12,0.3-18-0.2c-3.1-5-7.1-9.4-10.7-14l-0.3-0.4l-2.1-2.8L340.3,283.8
	 M513.8,287.9c3.5,0.5,6.5,2.3,9.8,3.4c1.2,0.9,4.3,0.8,4.3,2.7c0,0.5-0.1,1.4-0.1,1.8c-3.4-0.1-6.7,0-10.1,0h-2h-1.8
	C513.8,293.2,513.8,290.6,513.8,287.9L513.8,287.9z"/>
</svg>
